<?xml version="1.0" encoding="us-ascii" standalone="no"?><svg xmlns="http://www.w3.org/2000/svg" xmlns:xlink="http://www.w3.org/1999/xlink" contentStyleType="text/css" height="997px" preserveAspectRatio="none" style="width:626px;height:997px;background:#FFFFFF;" version="1.1" viewBox="0 0 626 997" width="626px" zoomAndPan="magnify"><defs/><g><rect fill="none" height="155.7969" style="stroke:#000000;stroke-width:1.5;" width="358.5" x="217.5" y="11"/><path d="M465.5,11 L465.5,20.2969 L455.5,30.2969 L217.5,30.2969 " fill="none" style="stroke:#000000;stroke-width:1.5;"/><text fill="#000000" font-family="sans-serif" font-size="14" lengthAdjust="spacing" textLength="238" x="220.5" y="24.9951">Create AF.request (DataRequest)</text><rect fill="#F1F1F1" height="33.9688" rx="12.5" ry="12.5" style="stroke:#181818;stroke-width:0.5;" width="196" x="370" y="40.2969"/><text fill="#000000" font-family="sans-serif" font-size="12" lengthAdjust="spacing" textLength="176" x="380" y="61.4355">create URLRequest, encoded</text><path d="M227.5,84.2656 L227.5,154.7969 L378.5,154.7969 L378.5,94.2656 L368.5,84.2656 L227.5,84.2656 " fill="#FEFFDD" style="stroke:#181818;stroke-width:0.5;"/><path d="M368.5,84.2656 L368.5,94.2656 L378.5,94.2656 L368.5,84.2656 " fill="#FEFFDD" style="stroke:#181818;stroke-width:0.5;"/><ellipse cx="239" cy="96.8984" fill="#000000" rx="2.5" ry="2.5" style="stroke:#000000;stroke-width:0.0;"/><text fill="#000000" font-family="sans-serif" font-size="13" lengthAdjust="spacing" textLength="109" x="245.5" y="101.3325">underlyingQueue</text><ellipse cx="239" cy="112.0313" fill="#000000" rx="2.5" ry="2.5" style="stroke:#000000;stroke-width:0.0;"/><text fill="#000000" font-family="sans-serif" font-size="13" lengthAdjust="spacing" textLength="118" x="245.5" y="116.4653">serializationQueue</text><ellipse cx="239" cy="127.1641" fill="#000000" rx="2.5" ry="2.5" style="stroke:#000000;stroke-width:0.0;"/><text fill="#000000" font-family="sans-serif" font-size="13" lengthAdjust="spacing" textLength="84" x="245.5" y="131.5981">eventMonitor</text><ellipse cx="239" cy="142.2969" fill="#000000" rx="2.5" ry="2.5" style="stroke:#000000;stroke-width:0.0;"/><text fill="#000000" font-family="sans-serif" font-size="13" lengthAdjust="spacing" textLength="70" x="245.5" y="146.731">interceptor</text><rect fill="#F1F1F1" height="33.9688" rx="12.5" ry="12.5" style="stroke:#181818;stroke-width:0.5;" width="139" x="398.5" y="102.5469"/><text fill="#000000" font-family="sans-serif" font-size="12" lengthAdjust="spacing" textLength="119" x="408.5" y="123.6855">create DataRequest</text><rect fill="none" height="809.6328" style="stroke:#000000;stroke-width:1.5;" width="604" x="11" y="176.7969"/><path d="M170,176.7969 L170,186.0938 L160,196.0938 L11,196.0938 " fill="none" style="stroke:#000000;stroke-width:1.5;"/><text fill="#000000" font-family="sans-serif" font-size="14" lengthAdjust="spacing" textLength="149" x="14" y="190.792">Perform this request</text><rect fill="#F1F1F1" height="33.9688" rx="12.5" ry="12.5" style="stroke:#181818;stroke-width:0.5;" width="145" x="395.5" y="213.0938"/><text fill="#000000" font-family="sans-serif" font-size="12" lengthAdjust="spacing" textLength="125" x="405.5" y="234.2324">check `isCancelled `</text><rect fill="#F1F1F1" height="33.9688" rx="12.5" ry="12.5" style="stroke:#181818;stroke-width:0.5;" width="212" x="362" y="267.0625"/><text fill="#000000" font-family="sans-serif" font-size="12" lengthAdjust="spacing" textLength="192" x="372" y="288.2012">insert into Set `activeRequests`</text><rect fill="#F1F1F1" height="33.9688" rx="12.5" ry="12.5" style="stroke:#181818;stroke-width:0.5;" width="192" x="372" y="321.0313"/><text fill="#000000" font-family="sans-serif" font-size="12" lengthAdjust="spacing" textLength="172" x="382" y="342.1699">type casting as DataRequest</text><rect fill="#F1F1F1" height="33.9688" rx="12.5" ry="12.5" style="stroke:#181818;stroke-width:0.5;" width="155" x="390.5" y="375"/><text fill="#000000" font-family="sans-serif" font-size="12" lengthAdjust="spacing" textLength="135" x="400.5" y="396.1387">performDataRequest()</text><rect fill="#F1F1F1" height="33.9688" rx="12.5" ry="12.5" style="stroke:#181818;stroke-width:0.5;" width="145" x="395.5" y="428.9688"/><text fill="#000000" font-family="sans-serif" font-size="12" lengthAdjust="spacing" textLength="125" x="405.5" y="450.1074">dispatchPrecondition</text><rect fill="#F1F1F1" height="33.9688" rx="12.5" ry="12.5" style="stroke:#181818;stroke-width:0.5;" width="171" x="382.5" y="482.9375"/><text fill="#000000" font-family="sans-serif" font-size="12" lengthAdjust="spacing" textLength="151" x="392.5" y="504.0762">performSetupOperations</text><rect fill="none" height="190.2031" style="stroke:#000000;stroke-width:1.5;" width="584" x="21" y="526.9063"/><path d="M214,526.9063 L214,536.2031 L204,546.2031 L21,546.2031 " fill="none" style="stroke:#000000;stroke-width:1.5;"/><text fill="#000000" font-family="sans-serif" font-size="14" lengthAdjust="spacing" textLength="183" x="24" y="540.9014">performSetupOperations</text><path d="M31,567.6211 L31,592.7539 L321,592.7539 L321,577.6211 L311,567.6211 L31,567.6211 " fill="#FEFFDD" style="stroke:#181818;stroke-width:0.5;"/><path d="M311,567.6211 L311,577.6211 L321,577.6211 L311,567.6211 " fill="#FEFFDD" style="stroke:#181818;stroke-width:0.5;"/><text fill="#000000" font-family="sans-serif" font-size="13" lengthAdjust="spacing" textLength="269" x="37" y="584.688">didCreateInitialURLRequest(initialRequest)</text><rect fill="#F1F1F1" height="33.9688" rx="12.5" ry="12.5" style="stroke:#181818;stroke-width:0.5;" width="254" x="341" y="563.2031"/><text fill="#000000" font-family="sans-serif" font-size="12" lengthAdjust="spacing" textLength="234" x="351" y="584.3418">URLRequestConvertible -&gt; URLRequest</text><rect fill="#F1F1F1" height="33.9688" rx="12.5" ry="12.5" style="stroke:#181818;stroke-width:0.5;" width="177" x="379.5" y="617.1719"/><text fill="#000000" font-family="sans-serif" font-size="12" lengthAdjust="spacing" textLength="157" x="389.5" y="638.3105">check `isCancelled` again</text><rect fill="#F1F1F1" height="33.9688" rx="12.5" ry="12.5" style="stroke:#181818;stroke-width:0.5;" width="183" x="376.5" y="671.1406"/><text fill="#000000" font-family="sans-serif" font-size="12" lengthAdjust="spacing" textLength="163" x="386.5" y="692.2793">Create RequestAdapter ???</text><rect fill="none" height="247.3203" style="stroke:#000000;stroke-width:1.5;" width="464.5" x="120.5" y="727.1094"/><path d="M287.5,727.1094 L287.5,736.4063 L277.5,746.4063 L120.5,746.4063 " fill="none" style="stroke:#000000;stroke-width:1.5;"/><text fill="#000000" font-family="sans-serif" font-size="14" lengthAdjust="spacing" textLength="157" x="123.5" y="741.1045">didCreateURLRequest</text><rect fill="#F1F1F1" height="33.9688" rx="12.5" ry="12.5" style="stroke:#181818;stroke-width:0.5;" width="184" x="376" y="763.4063"/><text fill="#000000" font-family="sans-serif" font-size="12" lengthAdjust="spacing" textLength="164" x="386" y="784.5449">check `isCancelled` aagain</text><rect fill="#F1F1F1" height="33.9688" rx="12.5" ry="12.5" style="stroke:#181818;stroke-width:0.5;" width="214" x="361" y="817.375"/><text fill="#000000" font-family="sans-serif" font-size="12" lengthAdjust="spacing" textLength="194" x="371" y="838.5137">fetch sessionTask from Request</text><path d="M130.5,875.7617 L130.5,900.8945 L366.5,900.8945 L366.5,885.7617 L356.5,875.7617 L130.5,875.7617 " fill="#FEFFDD" style="stroke:#181818;stroke-width:0.5;"/><path d="M356.5,875.7617 L356.5,885.7617 L366.5,885.7617 L356.5,875.7617 " fill="#FEFFDD" style="stroke:#181818;stroke-width:0.5;"/><text fill="#000000" font-family="sans-serif" font-size="13" lengthAdjust="spacing" textLength="215" x="136.5" y="892.8286">key: Request, value: sessionTask</text><rect fill="#F1F1F1" height="33.9688" rx="12.5" ry="12.5" style="stroke:#181818;stroke-width:0.5;" width="163" x="386.5" y="871.3438"/><text fill="#000000" font-family="sans-serif" font-size="12" lengthAdjust="spacing" textLength="143" x="396.5" y="892.4824">add to requestTaskMap</text><path d="M229,922.1641 L229,962.4297 L374,962.4297 L374,932.1641 L364,922.1641 L229,922.1641 " fill="#FEFFDD" style="stroke:#181818;stroke-width:0.5;"/><path d="M364,922.1641 L364,932.1641 L374,932.1641 L364,922.1641 " fill="#FEFFDD" style="stroke:#181818;stroke-width:0.5;"/><text fill="#000000" font-family="sans-serif" font-size="13" lengthAdjust="spacing" textLength="124" x="235" y="939.231">if state is resumed,</text><text fill="#000000" font-family="sans-serif" font-size="13" lengthAdjust="spacing" textLength="115" x="235" y="954.3638">call task.resume()</text><rect fill="#F1F1F1" height="33.9688" rx="12.5" ry="12.5" style="stroke:#181818;stroke-width:0.5;" width="148" x="394" y="925.3125"/><text fill="#000000" font-family="sans-serif" font-size="12" lengthAdjust="spacing" textLength="128" x="404" y="946.4512">updateStatesForTask</text><line style="stroke:#181818;stroke-width:1.0;" x1="468" x2="468" y1="74.2656" y2="102.5469"/><polygon fill="#181818" points="464,92.5469,468,102.5469,472,92.5469,468,96.5469" style="stroke:#181818;stroke-width:1.0;"/><line style="stroke:#181818;stroke-width:1.0;" x1="468" x2="468" y1="247.0625" y2="267.0625"/><polygon fill="#181818" points="464,257.0625,468,267.0625,472,257.0625,468,261.0625" style="stroke:#181818;stroke-width:1.0;"/><line style="stroke:#181818;stroke-width:1.0;" x1="468" x2="468" y1="301.0313" y2="321.0313"/><polygon fill="#181818" points="464,311.0313,468,321.0313,472,311.0313,468,315.0313" style="stroke:#181818;stroke-width:1.0;"/><line style="stroke:#181818;stroke-width:1.0;" x1="468" x2="468" y1="355" y2="375"/><polygon fill="#181818" points="464,365,468,375,472,365,468,369" style="stroke:#181818;stroke-width:1.0;"/><line style="stroke:#181818;stroke-width:1.0;" x1="468" x2="468" y1="408.9688" y2="428.9688"/><polygon fill="#181818" points="464,418.9688,468,428.9688,472,418.9688,468,422.9688" style="stroke:#181818;stroke-width:1.0;"/><line style="stroke:#181818;stroke-width:1.0;" x1="468" x2="468" y1="462.9375" y2="482.9375"/><polygon fill="#181818" points="464,472.9375,468,482.9375,472,472.9375,468,476.9375" style="stroke:#181818;stroke-width:1.0;"/><line style="stroke:#181818;stroke-width:1.0;" x1="468" x2="468" y1="597.1719" y2="617.1719"/><polygon fill="#181818" points="464,607.1719,468,617.1719,472,607.1719,468,611.1719" style="stroke:#181818;stroke-width:1.0;"/><line style="stroke:#181818;stroke-width:1.0;" x1="468" x2="468" y1="651.1406" y2="671.1406"/><polygon fill="#181818" points="464,661.1406,468,671.1406,472,661.1406,468,665.1406" style="stroke:#181818;stroke-width:1.0;"/><line style="stroke:#181818;stroke-width:1.0;" x1="468" x2="468" y1="516.9063" y2="563.2031"/><polygon fill="#181818" points="464,553.2031,468,563.2031,472,553.2031,468,557.2031" style="stroke:#181818;stroke-width:1.0;"/><line style="stroke:#181818;stroke-width:1.0;" x1="468" x2="468" y1="797.375" y2="817.375"/><polygon fill="#181818" points="464,807.375,468,817.375,472,807.375,468,811.375" style="stroke:#181818;stroke-width:1.0;"/><line style="stroke:#181818;stroke-width:1.0;" x1="468" x2="468" y1="851.3438" y2="871.3438"/><polygon fill="#181818" points="464,861.3438,468,871.3438,472,861.3438,468,865.3438" style="stroke:#181818;stroke-width:1.0;"/><line style="stroke:#181818;stroke-width:1.0;" x1="468" x2="468" y1="905.3125" y2="925.3125"/><polygon fill="#181818" points="464,915.3125,468,925.3125,472,915.3125,468,919.3125" style="stroke:#181818;stroke-width:1.0;"/><line style="stroke:#181818;stroke-width:1.0;" x1="468" x2="468" y1="705.1094" y2="763.4063"/><polygon fill="#181818" points="464,753.4063,468,763.4063,472,753.4063,468,757.4063" style="stroke:#181818;stroke-width:1.0;"/><line style="stroke:#181818;stroke-width:1.0;" x1="468" x2="468" y1="136.5156" y2="213.0938"/><polygon fill="#181818" points="464,203.0938,468,213.0938,472,203.0938,468,207.0938" style="stroke:#181818;stroke-width:1.0;"/><!--SRC=[RLBDQYCn3BxFK-YOB6qV884D9QLGsB9fshr7QsiQ4STsRKqWk_JTAyzCCbEOYy6VPUdxKSGaB1myh1EX4Dm_tYNwQ2WBp1vGSDjTvl2_MfYkvC_sLu_U07aJBDdbzN7qPrdLBg2mVmSVzCbHBTKFQBobvCuAlpJKa2AP4gFZVrY8N40waPVdu5b2qYjxeMGebXjvstQiFgjuvR-XL8Tq1DbpXek4GdfFvW0xpclqXfmZ2pkborwdIcaRu9K4TcY4JzHJpwL4pf70O6uLOFukRH6xUIDmDbVOSeuePhz9P8AtBRUXMYSryRTUMgbvEU8_NL4K37wlWpyfQ_xh26v_ZeAOjDgoxK9zKXFLuA5ynXro2NTmTCAk7U0xSX7HhqZ_wzvYr4nWjLejloLndJiCd0v2ErzQrwIUwIBah1tUC1-WJk48WzreBMXKVR2buXdZfEm3dHTmNT0JkeOMuyuZiKsqIlDLzCYF8PNNoPPSGov5qAvMRevaRog3pe7ebxiEcit7Y_dv1G00]--></g></svg>