<?xml version="1.0" encoding="us-ascii" standalone="no"?><svg xmlns="http://www.w3.org/2000/svg" xmlns:xlink="http://www.w3.org/1999/xlink" contentStyleType="text/css" height="925px" preserveAspectRatio="none" style="width:850px;height:925px;background:#FFFFFF;" version="1.1" viewBox="0 0 850 925" width="850px" zoomAndPan="magnify"><defs/><g><path d="M10,15.418 L10,40.5508 L230,40.5508 L230,25.418 L220,15.418 L10,15.418 " fill="#FEFFDD" style="stroke:#181818;stroke-width:0.5;"/><path d="M220,15.418 L220,25.418 L230,25.418 L220,15.418 " fill="#FEFFDD" style="stroke:#181818;stroke-width:0.5;"/><text fill="#000000" font-family="sans-serif" font-size="13" lengthAdjust="spacing" textLength="199" x="16" y="32.4849">From URLSessionTaskDelegate</text><rect fill="#F1F1F1" height="33.9688" rx="12.5" ry="12.5" style="stroke:#181818;stroke-width:0.5;" width="153" x="250" y="11"/><text fill="#000000" font-family="sans-serif" font-size="12" lengthAdjust="spacing" textLength="133" x="260" y="32.1387">didCompleteWithError</text><rect fill="#F1F1F1" height="33.9688" rx="12.5" ry="12.5" style="stroke:#181818;stroke-width:0.5;" width="177" x="238" y="64.9688"/><text fill="#000000" font-family="sans-serif" font-size="12" lengthAdjust="spacing" textLength="157" x="248" y="86.1074">Request.didCompleteTask</text><rect fill="#F1F1F1" height="33.9688" rx="12.5" ry="12.5" style="stroke:#181818;stroke-width:0.5;" width="103" x="275" y="118.9375"/><text fill="#000000" font-family="sans-serif" font-size="12" lengthAdjust="spacing" textLength="83" x="285" y="140.0762">call validators</text><rect fill="#F1F1F1" height="33.9688" rx="12.5" ry="12.5" style="stroke:#181818;stroke-width:0.5;" width="143" x="255" y="172.9063"/><text fill="#000000" font-family="sans-serif" font-size="12" lengthAdjust="spacing" textLength="123" x="265" y="194.0449">retryOrFinish(error:)</text><polygon fill="#F1F1F1" points="299,226.875,354,226.875,366,238.875,354,250.875,299,250.875,287,238.875,299,226.875" style="stroke:#181818;stroke-width:0.5;"/><text fill="#000000" font-family="sans-serif" font-size="11" lengthAdjust="spacing" textLength="55" x="299" y="242.6831">will retry?</text><text fill="#000000" font-family="sans-serif" font-size="11" lengthAdjust="spacing" textLength="22" x="265" y="236.2808">YES</text><text fill="#000000" font-family="sans-serif" font-size="11" lengthAdjust="spacing" textLength="17" x="366" y="236.2808">NO</text><rect fill="#F1F1F1" height="33.9688" rx="12.5" ry="12.5" style="stroke:#181818;stroke-width:0.5;" width="143" x="39.875" y="260.875"/><text fill="#000000" font-family="sans-serif" font-size="12" lengthAdjust="spacing" textLength="123" x="49.875" y="282.0137">doNotRetryWithError</text><rect fill="#F1F1F1" height="33.9688" rx="12.5" ry="12.5" style="stroke:#181818;stroke-width:0.5;" width="166" x="28.375" y="314.8438"/><text fill="#000000" font-family="sans-serif" font-size="12" lengthAdjust="spacing" textLength="146" x="38.375" y="335.9824">Or retry/retry with delay</text><rect fill="#F1F1F1" height="33.9688" rx="12.5" ry="12.5" style="stroke:#181818;stroke-width:0.5;" width="61" x="511.125" y="260.875"/><text fill="#000000" font-family="sans-serif" font-size="12" lengthAdjust="spacing" textLength="41" x="521.125" y="282.0137">finish()</text><rect fill="none" height="529.9102" style="stroke:#000000;stroke-width:1.5;" width="625" x="214.375" y="314.8438"/><path d="M436.375,314.8438 L436.375,324.1406 L426.375,334.1406 L214.375,334.1406 " fill="none" style="stroke:#000000;stroke-width:1.5;"/><text fill="#000000" font-family="sans-serif" font-size="14" lengthAdjust="spacing" textLength="212" x="217.375" y="328.8389">Start the response serializers</text><rect fill="#F1F1F1" height="33.9688" rx="12.5" ry="12.5" style="stroke:#181818;stroke-width:0.5;" width="183" x="450.125" y="351.1406"/><text fill="#000000" font-family="sans-serif" font-size="12" lengthAdjust="spacing" textLength="163" x="460.125" y="372.2793">appendResponseSerializer</text><path d="M239.125,395.1094 L239.125,450.5078 L432.125,450.5078 L432.125,405.1094 L422.125,395.1094 L239.125,395.1094 " fill="#FEFFDD" style="stroke:#181818;stroke-width:0.5;"/><path d="M422.125,395.1094 L422.125,405.1094 L432.125,405.1094 L422.125,395.1094 " fill="#FEFFDD" style="stroke:#181818;stroke-width:0.5;"/><ellipse cx="250.625" cy="407.7422" fill="#000000" rx="2.5" ry="2.5" style="stroke:#000000;stroke-width:0.0;"/><text fill="#000000" font-family="sans-serif" font-size="13" lengthAdjust="spacing" textLength="119" x="257.125" y="412.1763">Get serialize result</text><ellipse cx="250.625" cy="422.875" fill="#000000" rx="2.5" ry="2.5" style="stroke:#000000;stroke-width:0.0;"/><text fill="#000000" font-family="sans-serif" font-size="13" lengthAdjust="spacing" textLength="160" x="257.125" y="427.3091">Create `DataResponse`;</text><ellipse cx="250.625" cy="438.0078" fill="#000000" rx="2.5" ry="2.5" style="stroke:#000000;stroke-width:0.0;"/><text fill="#000000" font-family="sans-serif" font-size="13" lengthAdjust="spacing" textLength="42" x="257.125" y="442.4419">Pass it</text><rect fill="#F1F1F1" height="33.9688" rx="12.5" ry="12.5" style="stroke:#181818;stroke-width:0.5;" width="179" x="452.125" y="405.8242"/><text fill="#000000" font-family="sans-serif" font-size="12" lengthAdjust="spacing" textLength="159" x="462.125" y="426.9629">exec responseSerializer()</text><rect fill="#F1F1F1" height="33.9688" rx="12.5" ry="12.5" style="stroke:#181818;stroke-width:0.5;" width="177" x="453.125" y="518.9102"/><text fill="#000000" font-family="sans-serif" font-size="12" lengthAdjust="spacing" textLength="157" x="463.125" y="540.0488">pretend serialize success</text><rect fill="#F1F1F1" height="33.9688" rx="12.5" ry="12.5" style="stroke:#181818;stroke-width:0.5;" width="208" x="437.625" y="572.8789"/><text fill="#000000" font-family="sans-serif" font-size="12" lengthAdjust="spacing" textLength="188" x="447.625" y="594.0176">add serialize complete handler</text><rect fill="#F1F1F1" height="33.9688" rx="12.5" ry="12.5" style="stroke:#181818;stroke-width:0.5;" width="214" x="434.625" y="626.8477"/><text fill="#000000" font-family="sans-serif" font-size="12" lengthAdjust="spacing" textLength="194" x="444.625" y="647.9863">processNextResponseSerializer</text><polygon fill="#F1F1F1" points="459.125,680.8164,624.125,680.8164,636.125,692.8164,624.125,704.8164,459.125,704.8164,447.125,692.8164,459.125,680.8164" style="stroke:#181818;stroke-width:0.5;"/><text fill="#000000" font-family="sans-serif" font-size="11" lengthAdjust="spacing" textLength="165" x="459.125" y="696.6245">any ResponseSerializer left?</text><text fill="#000000" font-family="sans-serif" font-size="11" lengthAdjust="spacing" textLength="17" x="430.125" y="690.2222">NO</text><text fill="#000000" font-family="sans-serif" font-size="11" lengthAdjust="spacing" textLength="22" x="636.125" y="690.2222">YES</text><rect fill="#F1F1F1" height="33.9688" rx="12.5" ry="12.5" style="stroke:#181818;stroke-width:0.5;" width="293" x="244.375" y="714.8164"/><text fill="#000000" font-family="sans-serif" font-size="12" lengthAdjust="spacing" textLength="273" x="254.375" y="735.9551">exec responseSerializerCompletion handlers</text><rect fill="#F1F1F1" height="33.9688" rx="12.5" ry="12.5" style="stroke:#181818;stroke-width:0.5;" width="142" x="319.875" y="768.7852"/><text fill="#000000" font-family="sans-serif" font-size="12" lengthAdjust="spacing" textLength="122" x="329.875" y="789.9238">Cleanup the request</text><rect fill="#F1F1F1" height="33.9688" rx="12.5" ry="12.5" style="stroke:#181818;stroke-width:0.5;" width="270" x="557.375" y="714.8164"/><text fill="#000000" font-family="sans-serif" font-size="12" lengthAdjust="spacing" textLength="250" x="567.375" y="735.9551">Continue processNextResponseSerializer</text><polygon fill="#F1F1F1" points="541.625,808.7539,553.625,820.7539,541.625,832.7539,529.625,820.7539,541.625,808.7539" style="stroke:#181818;stroke-width:0.5;"/><polygon fill="#F1F1F1" points="512.125,470.5078,571.125,470.5078,583.125,482.5078,571.125,494.5078,512.125,494.5078,500.125,482.5078,512.125,470.5078" style="stroke:#181818;stroke-width:0.5;"/><text fill="#000000" font-family="sans-serif" font-size="11" lengthAdjust="spacing" textLength="22" x="545.625" y="504.7183">YES</text><text fill="#000000" font-family="sans-serif" font-size="11" lengthAdjust="spacing" textLength="59" x="512.125" y="486.3159">retryOrNot</text><text fill="#000000" font-family="sans-serif" font-size="11" lengthAdjust="spacing" textLength="17" x="583.125" y="479.9136">NO</text><ellipse cx="622.125" cy="482.5078" fill="none" rx="11" ry="11" style="stroke:#222222;stroke-width:1.0;"/><ellipse cx="622.125" cy="482.5078" fill="#222222" rx="6" ry="6" style="stroke:#111111;stroke-width:1.0;"/><polygon fill="#F1F1F1" points="326.5,850.7539,338.5,862.7539,326.5,874.7539,314.5,862.7539,326.5,850.7539" style="stroke:#181818;stroke-width:0.5;"/><ellipse cx="326.5" cy="904.7539" fill="none" rx="10" ry="10" style="stroke:#222222;stroke-width:1.5;"/><line style="stroke:#222222;stroke-width:2.5;" x1="320.3128" x2="332.6872" y1="898.5667" y2="910.9411"/><line style="stroke:#222222;stroke-width:2.5;" x1="332.6872" x2="320.3128" y1="898.5667" y2="910.9411"/><line style="stroke:#181818;stroke-width:1.0;" x1="326.5" x2="326.5" y1="44.9688" y2="64.9688"/><polygon fill="#181818" points="322.5,54.9688,326.5,64.9688,330.5,54.9688,326.5,58.9688" style="stroke:#181818;stroke-width:1.0;"/><line style="stroke:#181818;stroke-width:1.0;" x1="326.5" x2="326.5" y1="98.9375" y2="118.9375"/><polygon fill="#181818" points="322.5,108.9375,326.5,118.9375,330.5,108.9375,326.5,112.9375" style="stroke:#181818;stroke-width:1.0;"/><line style="stroke:#181818;stroke-width:1.0;" x1="326.5" x2="326.5" y1="152.9063" y2="172.9063"/><polygon fill="#181818" points="322.5,162.9063,326.5,172.9063,330.5,162.9063,326.5,166.9063" style="stroke:#181818;stroke-width:1.0;"/><line style="stroke:#181818;stroke-width:1.0;" x1="111.375" x2="111.375" y1="294.8438" y2="314.8438"/><polygon fill="#181818" points="107.375,304.8438,111.375,314.8438,115.375,304.8438,111.375,308.8438" style="stroke:#181818;stroke-width:1.0;"/><line style="stroke:#181818;stroke-width:1.0;" x1="541.625" x2="541.625" y1="385.1094" y2="405.8242"/><polygon fill="#181818" points="537.625,395.8242,541.625,405.8242,545.625,395.8242,541.625,399.8242" style="stroke:#181818;stroke-width:1.0;"/><line style="stroke:#181818;stroke-width:1.0;" x1="541.625" x2="541.625" y1="552.8789" y2="572.8789"/><polygon fill="#181818" points="537.625,562.8789,541.625,572.8789,545.625,562.8789,541.625,566.8789" style="stroke:#181818;stroke-width:1.0;"/><line style="stroke:#181818;stroke-width:1.0;" x1="541.625" x2="541.625" y1="606.8477" y2="626.8477"/><polygon fill="#181818" points="537.625,616.8477,541.625,626.8477,545.625,616.8477,541.625,620.8477" style="stroke:#181818;stroke-width:1.0;"/><line style="stroke:#181818;stroke-width:1.0;" x1="390.875" x2="390.875" y1="748.7852" y2="768.7852"/><polygon fill="#181818" points="386.875,758.7852,390.875,768.7852,394.875,758.7852,390.875,762.7852" style="stroke:#181818;stroke-width:1.0;"/><line style="stroke:#181818;stroke-width:1.0;" x1="447.125" x2="390.875" y1="692.8164" y2="692.8164"/><line style="stroke:#181818;stroke-width:1.0;" x1="390.875" x2="390.875" y1="692.8164" y2="714.8164"/><polygon fill="#181818" points="386.875,704.8164,390.875,714.8164,394.875,704.8164,390.875,708.8164" style="stroke:#181818;stroke-width:1.0;"/><line style="stroke:#181818;stroke-width:1.0;" x1="636.125" x2="692.375" y1="692.8164" y2="692.8164"/><line style="stroke:#181818;stroke-width:1.0;" x1="692.375" x2="692.375" y1="692.8164" y2="714.8164"/><polygon fill="#181818" points="688.375,704.8164,692.375,714.8164,696.375,704.8164,692.375,708.8164" style="stroke:#181818;stroke-width:1.0;"/><line style="stroke:#181818;stroke-width:1.0;" x1="390.875" x2="390.875" y1="802.7539" y2="820.7539"/><line style="stroke:#181818;stroke-width:1.0;" x1="390.875" x2="529.625" y1="820.7539" y2="820.7539"/><polygon fill="#181818" points="519.625,816.7539,529.625,820.7539,519.625,824.7539,523.625,820.7539" style="stroke:#181818;stroke-width:1.0;"/><line style="stroke:#181818;stroke-width:1.0;" x1="692.375" x2="692.375" y1="748.7852" y2="820.7539"/><line style="stroke:#181818;stroke-width:1.0;" x1="692.375" x2="553.625" y1="820.7539" y2="820.7539"/><polygon fill="#181818" points="563.625,816.7539,553.625,820.7539,563.625,824.7539,559.625,820.7539" style="stroke:#181818;stroke-width:1.0;"/><line style="stroke:#181818;stroke-width:1.0;" x1="541.625" x2="541.625" y1="660.8164" y2="680.8164"/><polygon fill="#181818" points="537.625,670.8164,541.625,680.8164,545.625,670.8164,541.625,674.8164" style="stroke:#181818;stroke-width:1.0;"/><line style="stroke:#181818;stroke-width:1.0;" x1="541.625" x2="541.625" y1="494.5078" y2="518.9102"/><polygon fill="#181818" points="537.625,508.9102,541.625,518.9102,545.625,508.9102,541.625,512.9102" style="stroke:#181818;stroke-width:1.0;"/><line style="stroke:#181818;stroke-width:1.0;" x1="583.125" x2="611.125" y1="482.5078" y2="482.5078"/><polygon fill="#181818" points="601.125,478.5078,611.125,482.5078,601.125,486.5078,605.125,482.5078" style="stroke:#181818;stroke-width:1.0;"/><line style="stroke:#181818;stroke-width:1.0;" x1="541.625" x2="541.625" y1="832.7539" y2="862.7539"/><line style="stroke:#181818;stroke-width:1.0;" x1="541.625" x2="338.5" y1="862.7539" y2="862.7539"/><polygon fill="#181818" points="348.5,858.7539,338.5,862.7539,348.5,866.7539,344.5,862.7539" style="stroke:#181818;stroke-width:1.0;"/><line style="stroke:#181818;stroke-width:1.0;" x1="541.625" x2="541.625" y1="439.793" y2="470.5078"/><polygon fill="#181818" points="537.625,460.5078,541.625,470.5078,545.625,460.5078,541.625,464.5078" style="stroke:#181818;stroke-width:1.0;"/><line style="stroke:#181818;stroke-width:1.0;" x1="541.625" x2="541.625" y1="294.8438" y2="351.1406"/><polygon fill="#181818" points="537.625,341.1406,541.625,351.1406,545.625,341.1406,541.625,345.1406" style="stroke:#181818;stroke-width:1.0;"/><line style="stroke:#181818;stroke-width:1.0;" x1="287" x2="111.375" y1="238.875" y2="238.875"/><line style="stroke:#181818;stroke-width:1.0;" x1="111.375" x2="111.375" y1="238.875" y2="260.875"/><polygon fill="#181818" points="107.375,250.875,111.375,260.875,115.375,250.875,111.375,254.875" style="stroke:#181818;stroke-width:1.0;"/><line style="stroke:#181818;stroke-width:1.0;" x1="366" x2="541.625" y1="238.875" y2="238.875"/><line style="stroke:#181818;stroke-width:1.0;" x1="541.625" x2="541.625" y1="238.875" y2="260.875"/><polygon fill="#181818" points="537.625,250.875,541.625,260.875,545.625,250.875,541.625,254.875" style="stroke:#181818;stroke-width:1.0;"/><line style="stroke:#181818;stroke-width:1.0;" x1="111.375" x2="111.375" y1="348.8125" y2="862.7539"/><line style="stroke:#181818;stroke-width:1.0;" x1="111.375" x2="314.5" y1="862.7539" y2="862.7539"/><polygon fill="#181818" points="304.5,858.7539,314.5,862.7539,304.5,866.7539,308.5,862.7539" style="stroke:#181818;stroke-width:1.0;"/><line style="stroke:#181818;stroke-width:1.0;" x1="326.5" x2="326.5" y1="206.875" y2="226.875"/><polygon fill="#181818" points="322.5,216.875,326.5,226.875,330.5,216.875,326.5,220.875" style="stroke:#181818;stroke-width:1.0;"/><line style="stroke:#181818;stroke-width:1.0;" x1="326.5" x2="326.5" y1="874.7539" y2="894.7539"/><polygon fill="#181818" points="322.5,884.7539,326.5,894.7539,330.5,884.7539,326.5,888.7539" style="stroke:#181818;stroke-width:1.0;"/><!--SRC=[XLAnJiCm5Dpz5Mzi661F1eQqPK4jQa68hLRyqbYujh5VQ0lYttbEqwQ88fOeUdVslRjphhGgtSOR97pMr4n2SA4GjN6Ij5s3TOHWi2On3Mu3Julx9SQedNsKyNMC1jUIKA1L7LFa2tnhCTBrsRM9MOYyaiR0kpHQIN8XyYGWXVqyJBNLiHbXKiwpGkWQHblDv0w_pO0Qj31wcImpaIitSxH8mDcs-JmSo3VT5xOCWK8ZzuL04n56ita68gyFIgpXPI1DR0EMnBz9Wc-8tbbcHmoQz_p04E5JvD9xzhVeqUK9P5tSONKwDo19uKA2Lt27DDoU3hOcZSk0d2AinfBaKMTLCF0WOmHDGxufcpuspk5dD9w1H1m4ObjLt1OlAjNvlEgRWKPQPJedFhX4dU6EBZbDkjBkuJVMMJkLn3d_cKh_7bBelMxQh3GeRUlx1hh7SopjOAjqbdDi4VvPaQthUgXRH7A-7tuTGQk-0G00]--></g></svg>